<mxfile host="app.diagrams.net" modified="2021-04-26T02:28:13.914Z" agent="5.0 (Windows NT 10.0; Win64; x64) AppleWebKit/537.36 (KHTML, like Gecko) Chrome/89.0.4389.114 Safari/537.36 Edg/89.0.774.76" etag="_QpaJxjCHFu9SOVjvpA9" version="14.6.6" type="github">
  <diagram id="rvaMPYtywi87Qq2E9nYQ" name="Page-1">
    <mxGraphModel dx="2595" dy="1450" grid="1" gridSize="10" guides="1" tooltips="1" connect="1" arrows="1" fold="1" page="1" pageScale="1" pageWidth="1100" pageHeight="850" math="0" shadow="0">
      <root>
        <mxCell id="0" />
        <mxCell id="1" parent="0" />
        <mxCell id="OPr9Zk-g0gcY89tPPBph-1" value="&lt;b&gt;forwardAD&lt;/b&gt;" style="rounded=0;whiteSpace=wrap;html=1;fillColor=#d5e8d4;strokeColor=#82b366;" vertex="1" parent="1">
          <mxGeometry x="160" y="160" width="160" height="80" as="geometry" />
        </mxCell>
        <mxCell id="OPr9Zk-g0gcY89tPPBph-2" value="&lt;b&gt;forwardBD&lt;/b&gt;" style="rounded=0;whiteSpace=wrap;html=1;fillColor=#d5e8d4;strokeColor=#82b366;" vertex="1" parent="1">
          <mxGeometry x="160" y="280" width="160" height="80" as="geometry" />
        </mxCell>
        <mxCell id="OPr9Zk-g0gcY89tPPBph-3" value="a[31:0]" style="text;html=1;strokeColor=#82b366;fillColor=#d5e8d4;align=center;verticalAlign=middle;whiteSpace=wrap;rounded=0;" vertex="1" parent="1">
          <mxGeometry x="160" y="170" width="40" height="20" as="geometry" />
        </mxCell>
        <mxCell id="OPr9Zk-g0gcY89tPPBph-4" value="a[31:0]" style="text;html=1;strokeColor=#82b366;fillColor=#d5e8d4;align=center;verticalAlign=middle;whiteSpace=wrap;rounded=0;" vertex="1" parent="1">
          <mxGeometry x="160" y="290" width="40" height="20" as="geometry" />
        </mxCell>
        <mxCell id="OPr9Zk-g0gcY89tPPBph-5" value="b[31:0]" style="text;html=1;strokeColor=#82b366;fillColor=#d5e8d4;align=center;verticalAlign=middle;whiteSpace=wrap;rounded=0;" vertex="1" parent="1">
          <mxGeometry x="160" y="210" width="40" height="20" as="geometry" />
        </mxCell>
        <mxCell id="OPr9Zk-g0gcY89tPPBph-6" value="b[31:0]" style="text;html=1;strokeColor=#82b366;fillColor=#d5e8d4;align=center;verticalAlign=middle;whiteSpace=wrap;rounded=0;" vertex="1" parent="1">
          <mxGeometry x="160" y="330" width="40" height="20" as="geometry" />
        </mxCell>
        <mxCell id="OPr9Zk-g0gcY89tPPBph-7" value="y[31:0]" style="text;html=1;strokeColor=#82b366;fillColor=#d5e8d4;align=center;verticalAlign=middle;whiteSpace=wrap;rounded=0;" vertex="1" parent="1">
          <mxGeometry x="280" y="170" width="40" height="20" as="geometry" />
        </mxCell>
        <mxCell id="OPr9Zk-g0gcY89tPPBph-8" value="y[31:0]" style="text;html=1;strokeColor=#82b366;fillColor=#d5e8d4;align=center;verticalAlign=middle;whiteSpace=wrap;rounded=0;" vertex="1" parent="1">
          <mxGeometry x="280" y="290" width="40" height="20" as="geometry" />
        </mxCell>
        <mxCell id="OPr9Zk-g0gcY89tPPBph-10" value="&lt;b&gt;forwardAE&lt;/b&gt;" style="rounded=0;whiteSpace=wrap;html=1;fillColor=#d5e8d4;strokeColor=#82b366;" vertex="1" parent="1">
          <mxGeometry x="600" y="200" width="200" height="80" as="geometry" />
        </mxCell>
        <mxCell id="OPr9Zk-g0gcY89tPPBph-11" value="&lt;b&gt;forwardBE&lt;/b&gt;" style="rounded=0;whiteSpace=wrap;html=1;fillColor=#d5e8d4;strokeColor=#82b366;" vertex="1" parent="1">
          <mxGeometry x="600" y="320" width="200" height="80" as="geometry" />
        </mxCell>
        <mxCell id="OPr9Zk-g0gcY89tPPBph-12" value="mux2" style="text;html=1;strokeColor=#82b366;fillColor=#d5e8d4;align=center;verticalAlign=middle;whiteSpace=wrap;rounded=0;" vertex="1" parent="1">
          <mxGeometry x="220" y="160" width="40" height="20" as="geometry" />
        </mxCell>
        <mxCell id="OPr9Zk-g0gcY89tPPBph-13" value="mux2" style="text;html=1;strokeColor=#82b366;fillColor=#d5e8d4;align=center;verticalAlign=middle;whiteSpace=wrap;rounded=0;" vertex="1" parent="1">
          <mxGeometry x="220" y="280" width="40" height="20" as="geometry" />
        </mxCell>
        <mxCell id="OPr9Zk-g0gcY89tPPBph-14" value="mux3" style="text;html=1;strokeColor=#82b366;fillColor=#d5e8d4;align=center;verticalAlign=middle;whiteSpace=wrap;rounded=0;" vertex="1" parent="1">
          <mxGeometry x="680" y="200" width="40" height="20" as="geometry" />
        </mxCell>
        <mxCell id="OPr9Zk-g0gcY89tPPBph-15" value="mux3" style="text;html=1;strokeColor=#82b366;fillColor=#d5e8d4;align=center;verticalAlign=middle;whiteSpace=wrap;rounded=0;" vertex="1" parent="1">
          <mxGeometry x="680" y="320" width="40" height="20" as="geometry" />
        </mxCell>
        <mxCell id="OPr9Zk-g0gcY89tPPBph-16" value="a[31:0]" style="text;html=1;strokeColor=#82b366;fillColor=#d5e8d4;align=center;verticalAlign=middle;whiteSpace=wrap;rounded=0;" vertex="1" parent="1">
          <mxGeometry x="600" y="210" width="40" height="20" as="geometry" />
        </mxCell>
        <mxCell id="OPr9Zk-g0gcY89tPPBph-17" value="b[31:0]" style="text;html=1;strokeColor=#82b366;fillColor=#d5e8d4;align=center;verticalAlign=middle;whiteSpace=wrap;rounded=0;" vertex="1" parent="1">
          <mxGeometry x="600" y="230" width="40" height="20" as="geometry" />
        </mxCell>
        <mxCell id="OPr9Zk-g0gcY89tPPBph-18" value="c[31:0]" style="text;html=1;strokeColor=#82b366;fillColor=#d5e8d4;align=center;verticalAlign=middle;whiteSpace=wrap;rounded=0;" vertex="1" parent="1">
          <mxGeometry x="600" y="250" width="40" height="20" as="geometry" />
        </mxCell>
        <mxCell id="OPr9Zk-g0gcY89tPPBph-20" value="y[31:0]" style="text;html=1;strokeColor=#82b366;fillColor=#d5e8d4;align=center;verticalAlign=middle;whiteSpace=wrap;rounded=0;" vertex="1" parent="1">
          <mxGeometry x="760" y="210" width="40" height="20" as="geometry" />
        </mxCell>
        <mxCell id="OPr9Zk-g0gcY89tPPBph-21" value="sel[1:0]" style="text;html=1;strokeColor=#82b366;fillColor=#d5e8d4;align=center;verticalAlign=middle;whiteSpace=wrap;rounded=0;" vertex="1" parent="1">
          <mxGeometry x="760" y="260" width="40" height="20" as="geometry" />
        </mxCell>
        <mxCell id="OPr9Zk-g0gcY89tPPBph-22" value="a[31:0]" style="text;html=1;strokeColor=#82b366;fillColor=#d5e8d4;align=center;verticalAlign=middle;whiteSpace=wrap;rounded=0;" vertex="1" parent="1">
          <mxGeometry x="600" y="330" width="40" height="20" as="geometry" />
        </mxCell>
        <mxCell id="OPr9Zk-g0gcY89tPPBph-23" value="b[31:0]" style="text;html=1;strokeColor=#82b366;fillColor=#d5e8d4;align=center;verticalAlign=middle;whiteSpace=wrap;rounded=0;" vertex="1" parent="1">
          <mxGeometry x="600" y="350" width="40" height="20" as="geometry" />
        </mxCell>
        <mxCell id="OPr9Zk-g0gcY89tPPBph-24" value="c[31:0]" style="text;html=1;strokeColor=#82b366;fillColor=#d5e8d4;align=center;verticalAlign=middle;whiteSpace=wrap;rounded=0;" vertex="1" parent="1">
          <mxGeometry x="600" y="370" width="40" height="20" as="geometry" />
        </mxCell>
        <mxCell id="OPr9Zk-g0gcY89tPPBph-25" value="y[31:0]" style="text;html=1;strokeColor=#82b366;fillColor=#d5e8d4;align=center;verticalAlign=middle;whiteSpace=wrap;rounded=0;" vertex="1" parent="1">
          <mxGeometry x="760" y="330" width="40" height="20" as="geometry" />
        </mxCell>
        <mxCell id="OPr9Zk-g0gcY89tPPBph-26" value="sel[1:0]" style="text;html=1;strokeColor=#82b366;fillColor=#d5e8d4;align=center;verticalAlign=middle;whiteSpace=wrap;rounded=0;" vertex="1" parent="1">
          <mxGeometry x="760" y="370" width="40" height="20" as="geometry" />
        </mxCell>
        <mxCell id="OPr9Zk-g0gcY89tPPBph-27" value="&lt;b&gt;Hazard Unit&lt;/b&gt;" style="rounded=0;whiteSpace=wrap;html=1;fillColor=#d5e8d4;strokeColor=#82b366;" vertex="1" parent="1">
          <mxGeometry y="520" width="1620" height="80" as="geometry" />
        </mxCell>
        <mxCell id="OPr9Zk-g0gcY89tPPBph-28" value="stallF" style="text;html=1;strokeColor=#82b366;fillColor=#d5e8d4;align=center;verticalAlign=middle;whiteSpace=wrap;rounded=0;" vertex="1" parent="1">
          <mxGeometry x="30" y="520" width="40" height="20" as="geometry" />
        </mxCell>
        <mxCell id="OPr9Zk-g0gcY89tPPBph-29" value="stallD" style="text;html=1;strokeColor=#82b366;fillColor=#d5e8d4;align=center;verticalAlign=middle;whiteSpace=wrap;rounded=0;" vertex="1" parent="1">
          <mxGeometry x="110" y="520" width="40" height="20" as="geometry" />
        </mxCell>
        <mxCell id="OPr9Zk-g0gcY89tPPBph-30" value="sel_BD" style="text;html=1;strokeColor=#82b366;fillColor=#d5e8d4;align=center;verticalAlign=middle;whiteSpace=wrap;rounded=0;" vertex="1" parent="1">
          <mxGeometry x="340" y="520" width="40" height="20" as="geometry" />
        </mxCell>
        <mxCell id="OPr9Zk-g0gcY89tPPBph-32" value="sel_AD" style="text;html=1;strokeColor=#82b366;fillColor=#d5e8d4;align=center;verticalAlign=middle;whiteSpace=wrap;rounded=0;" vertex="1" parent="1">
          <mxGeometry x="390" y="520" width="40" height="20" as="geometry" />
        </mxCell>
        <mxCell id="OPr9Zk-g0gcY89tPPBph-33" value="instrD[25:21]" style="text;html=1;strokeColor=#82b366;fillColor=#d5e8d4;align=center;verticalAlign=middle;whiteSpace=wrap;rounded=0;" vertex="1" parent="1">
          <mxGeometry x="450" y="520" width="40" height="20" as="geometry" />
        </mxCell>
        <mxCell id="OPr9Zk-g0gcY89tPPBph-34" value="instrD[20:16]" style="text;html=1;strokeColor=#82b366;fillColor=#d5e8d4;align=center;verticalAlign=middle;whiteSpace=wrap;rounded=0;" vertex="1" parent="1">
          <mxGeometry x="530" y="520" width="40" height="20" as="geometry" />
        </mxCell>
        <mxCell id="OPr9Zk-g0gcY89tPPBph-35" value="flushE" style="text;html=1;strokeColor=#82b366;fillColor=#d5e8d4;align=center;verticalAlign=middle;whiteSpace=wrap;rounded=0;" vertex="1" parent="1">
          <mxGeometry x="600" y="520" width="40" height="20" as="geometry" />
        </mxCell>
        <mxCell id="OPr9Zk-g0gcY89tPPBph-36" value="instrE[25:21]" style="text;html=1;strokeColor=#82b366;fillColor=#d5e8d4;align=center;verticalAlign=middle;whiteSpace=wrap;rounded=0;" vertex="1" parent="1">
          <mxGeometry x="680" y="520" width="40" height="20" as="geometry" />
        </mxCell>
        <mxCell id="OPr9Zk-g0gcY89tPPBph-37" value="instrE[20:16]" style="text;html=1;strokeColor=#82b366;fillColor=#d5e8d4;align=center;verticalAlign=middle;whiteSpace=wrap;rounded=0;" vertex="1" parent="1">
          <mxGeometry x="760" y="520" width="40" height="20" as="geometry" />
        </mxCell>
        <mxCell id="OPr9Zk-g0gcY89tPPBph-38" value="sel_AE[1:0]" style="text;html=1;strokeColor=#82b366;fillColor=#d5e8d4;align=center;verticalAlign=middle;whiteSpace=wrap;rounded=0;" vertex="1" parent="1">
          <mxGeometry x="840" y="520" width="40" height="20" as="geometry" />
        </mxCell>
        <mxCell id="OPr9Zk-g0gcY89tPPBph-39" value="dm2reg" style="text;html=1;strokeColor=#82b366;fillColor=#d5e8d4;align=center;verticalAlign=middle;whiteSpace=wrap;rounded=0;" vertex="1" parent="1">
          <mxGeometry x="920" y="520" width="40" height="20" as="geometry" />
        </mxCell>
        <mxCell id="OPr9Zk-g0gcY89tPPBph-40" value="sel_BE[1:0]" style="text;html=1;strokeColor=#82b366;fillColor=#d5e8d4;align=center;verticalAlign=middle;whiteSpace=wrap;rounded=0;" vertex="1" parent="1">
          <mxGeometry x="1000" y="520" width="40" height="20" as="geometry" />
        </mxCell>
        <mxCell id="OPr9Zk-g0gcY89tPPBph-41" value="we_regE" style="text;html=1;strokeColor=#82b366;fillColor=#d5e8d4;align=center;verticalAlign=middle;whiteSpace=wrap;rounded=0;" vertex="1" parent="1">
          <mxGeometry x="1090" y="520" width="40" height="20" as="geometry" />
        </mxCell>
        <mxCell id="OPr9Zk-g0gcY89tPPBph-42" value="rt_waE" style="text;html=1;strokeColor=#82b366;fillColor=#d5e8d4;align=center;verticalAlign=middle;whiteSpace=wrap;rounded=0;" vertex="1" parent="1">
          <mxGeometry x="1160" y="520" width="40" height="20" as="geometry" />
        </mxCell>
        <mxCell id="OPr9Zk-g0gcY89tPPBph-43" style="edgeStyle=orthogonalEdgeStyle;rounded=0;orthogonalLoop=1;jettySize=auto;html=1;exitX=0.5;exitY=1;exitDx=0;exitDy=0;fillColor=#d5e8d4;strokeColor=#82b366;" edge="1" parent="1" source="OPr9Zk-g0gcY89tPPBph-29" target="OPr9Zk-g0gcY89tPPBph-29">
          <mxGeometry relative="1" as="geometry" />
        </mxCell>
        <mxCell id="OPr9Zk-g0gcY89tPPBph-44" value="we_regM" style="text;html=1;strokeColor=#82b366;fillColor=#d5e8d4;align=center;verticalAlign=middle;whiteSpace=wrap;rounded=0;" vertex="1" parent="1">
          <mxGeometry x="1310" y="520" width="40" height="20" as="geometry" />
        </mxCell>
        <mxCell id="OPr9Zk-g0gcY89tPPBph-45" value="rf_wa[4:0]" style="text;html=1;strokeColor=#82b366;fillColor=#d5e8d4;align=center;verticalAlign=middle;whiteSpace=wrap;rounded=0;" vertex="1" parent="1">
          <mxGeometry x="1370" y="520" width="40" height="20" as="geometry" />
        </mxCell>
        <mxCell id="OPr9Zk-g0gcY89tPPBph-46" value="rf_waW[4:0]" style="text;html=1;strokeColor=#82b366;fillColor=#d5e8d4;align=center;verticalAlign=middle;whiteSpace=wrap;rounded=0;" vertex="1" parent="1">
          <mxGeometry x="1480" y="520" width="40" height="20" as="geometry" />
        </mxCell>
        <mxCell id="OPr9Zk-g0gcY89tPPBph-47" value="we_regW" style="text;html=1;strokeColor=#82b366;fillColor=#d5e8d4;align=center;verticalAlign=middle;whiteSpace=wrap;rounded=0;" vertex="1" parent="1">
          <mxGeometry x="1570" y="520" width="40" height="20" as="geometry" />
        </mxCell>
        <mxCell id="OPr9Zk-g0gcY89tPPBph-48" value="equal" style="rounded=0;whiteSpace=wrap;html=1;fillColor=#d5e8d4;strokeColor=#82b366;" vertex="1" parent="1">
          <mxGeometry x="840" y="40" width="160" height="80" as="geometry" />
        </mxCell>
        <mxCell id="OPr9Zk-g0gcY89tPPBph-49" value="a[31:0]" style="text;html=1;strokeColor=#82b366;fillColor=#d5e8d4;align=center;verticalAlign=middle;whiteSpace=wrap;rounded=0;" vertex="1" parent="1">
          <mxGeometry x="840" y="50" width="40" height="20" as="geometry" />
        </mxCell>
        <mxCell id="OPr9Zk-g0gcY89tPPBph-50" value="b[31:0]" style="text;html=1;strokeColor=#82b366;fillColor=#d5e8d4;align=center;verticalAlign=middle;whiteSpace=wrap;rounded=0;" vertex="1" parent="1">
          <mxGeometry x="840" y="90" width="40" height="20" as="geometry" />
        </mxCell>
        <mxCell id="OPr9Zk-g0gcY89tPPBph-51" value="y" style="text;html=1;strokeColor=#82b366;fillColor=#d5e8d4;align=center;verticalAlign=middle;whiteSpace=wrap;rounded=0;" vertex="1" parent="1">
          <mxGeometry x="960" y="50" width="40" height="20" as="geometry" />
        </mxCell>
      </root>
    </mxGraphModel>
  </diagram>
</mxfile>
